<?xml version="1.0" standalone="no"?>
<svg xmlns="http://www.w3.org/2000/svg" width="300" height="300" xmlns:xlink="http://www.w3.org/1999/xlink" viewBox="0 0 300 300"><defs><clipPath id="clip-path-background-color-7"><rect x="0" y="0" width="300" height="300"/></clipPath><clipPath id="clip-path-dot-color-7"><path d="M 106 34v 8h 4a 4 4, 0, 0, 0, 0 -8" transform="rotate(-90,110,38)"/><path d="M 122 34v 8h 4a 4 4, 0, 0, 0, 0 -8" transform="rotate(180,126,38)"/><rect x="130" y="34" width="8" height="8" transform="rotate(0,134,38)"/><path d="M 138 34v 8h 4a 4 4, 0, 0, 0, 0 -8" transform="rotate(0,142,38)"/><path d="M 154 34v 8h 4a 4 4, 0, 0, 0, 0 -8" transform="rotate(-90,158,38)"/><path d="M 170 34v 8h 4a 4 4, 0, 0, 0, 0 -8" transform="rotate(180,174,38)"/><path d="M 178 34v 8h 4a 4 4, 0, 0, 0, 0 -8" transform="rotate(0,182,38)"/><rect x="106" y="42" width="8" height="8" transform="rotate(0,110,46)"/><path d="M 114 42v 8h 4a 4 4, 0, 0, 0, 0 -8" transform="rotate(0,118,46)"/><path d="M 146 42v 8h 8v -4a 4 4, 0, 0, 0, -4 -4" transform="rotate(-90,150,46)"/><rect x="154" y="42" width="8" height="8" transform="rotate(0,158,46)"/><circle cx="190" cy="46" r="4" transform="rotate(0,190,46)"/><path d="M 98 50v 8h 4a 4 4, 0, 0, 0, 0 -8" transform="rotate(180,102,54)"/><path d="M 106 50v 8h 8v -4a 4 4, 0, 0, 0, -4 -4" transform="rotate(90,110,54)"/><path d="M 130 50v 8h 4a 4 4, 0, 0, 0, 0 -8" transform="rotate(180,134,54)"/><rect x="138" y="50" width="8" height="8" transform="rotate(0,142,54)"/><rect x="146" y="50" width="8" height="8" transform="rotate(0,150,54)"/><path d="M 154 50v 8h 8v -4a 4 4, 0, 0, 0, -4 -4" transform="rotate(90,158,54)"/><path d="M 170 50v 8h 4a 4 4, 0, 0, 0, 0 -8" transform="rotate(180,174,54)"/><path d="M 178 50v 8h 8v -4a 4 4, 0, 0, 0, -4 -4" transform="rotate(0,182,54)"/><path d="M 114 58v 8h 4a 4 4, 0, 0, 0, 0 -8" transform="rotate(-90,118,62)"/><path d="M 138 58v 8h 4a 4 4, 0, 0, 0, 0 -8" transform="rotate(90,142,62)"/><path d="M 178 58v 8h 8v -4a 4 4, 0, 0, 0, -4 -4" transform="rotate(180,182,62)"/><path d="M 186 58v 8h 4a 4 4, 0, 0, 0, 0 -8" transform="rotate(0,190,62)"/><path d="M 98 66v 8h 4a 4 4, 0, 0, 0, 0 -8" transform="rotate(-90,102,70)"/><rect x="114" y="66" width="8" height="8" transform="rotate(0,118,70)"/><rect x="122" y="66" width="8" height="8" transform="rotate(0,126,70)"/><path d="M 130 66v 8h 4a 4 4, 0, 0, 0, 0 -8" transform="rotate(0,134,70)"/><path d="M 154 66v 8h 8v -4a 4 4, 0, 0, 0, -4 -4" transform="rotate(-90,158,70)"/><rect x="162" y="66" width="8" height="8" transform="rotate(0,166,70)"/><path d="M 170 66v 8h 4a 4 4, 0, 0, 0, 0 -8" transform="rotate(0,174,70)"/><path d="M 194 66v 8h 4a 4 4, 0, 0, 0, 0 -8" transform="rotate(-90,198,70)"/><rect x="98" y="74" width="8" height="8" transform="rotate(0,102,78)"/><rect x="114" y="74" width="8" height="8" transform="rotate(0,118,78)"/><path d="M 154 74v 8h 4a 4 4, 0, 0, 0, 0 -8" transform="rotate(90,158,78)"/><path d="M 186 74v 8h 4a 4 4, 0, 0, 0, 0 -8" transform="rotate(180,190,78)"/><rect x="194" y="74" width="8" height="8" transform="rotate(0,198,78)"/><path d="M 98 82v 8h 4a 4 4, 0, 0, 0, 0 -8" transform="rotate(90,102,86)"/><path d="M 114 82v 8h 4a 4 4, 0, 0, 0, 0 -8" transform="rotate(90,118,86)"/><circle cx="134" cy="86" r="4" transform="rotate(0,134,86)"/><circle cx="150" cy="86" r="4" transform="rotate(0,150,86)"/><circle cx="166" cy="86" r="4" transform="rotate(0,166,86)"/><path d="M 178 82v 8h 4a 4 4, 0, 0, 0, 0 -8" transform="rotate(-90,182,86)"/><path d="M 194 82v 8h 4a 4 4, 0, 0, 0, 0 -8" transform="rotate(90,198,86)"/><circle cx="110" cy="94" r="4" transform="rotate(0,110,94)"/><circle cx="126" cy="94" r="4" transform="rotate(0,126,94)"/><circle cx="142" cy="94" r="4" transform="rotate(0,142,94)"/><circle cx="158" cy="94" r="4" transform="rotate(0,158,94)"/><path d="M 170 90v 8h 8v -4a 4 4, 0, 0, 0, -4 -4" transform="rotate(-90,174,94)"/><rect x="178" y="90" width="8" height="8" transform="rotate(0,182,94)"/><path d="M 186 90v 8h 8v -4a 4 4, 0, 0, 0, -4 -4" transform="rotate(0,190,94)"/><path d="M 42 98v 8h 4a 4 4, 0, 0, 0, 0 -8" transform="rotate(-90,46,102)"/><path d="M 66 98v 8h 4a 4 4, 0, 0, 0, 0 -8" transform="rotate(-90,70,102)"/><circle cx="86" cy="102" r="4" transform="rotate(0,86,102)"/><path d="M 98 98v 8h 4a 4 4, 0, 0, 0, 0 -8" transform="rotate(-90,102,102)"/><circle cx="134" cy="102" r="4" transform="rotate(0,134,102)"/><circle cx="150" cy="102" r="4" transform="rotate(0,150,102)"/><path d="M 170 98v 8h 4a 4 4, 0, 0, 0, 0 -8" transform="rotate(90,174,102)"/><path d="M 186 98v 8h 4a 4 4, 0, 0, 0, 0 -8" transform="rotate(90,190,102)"/><circle cx="206" cy="102" r="4" transform="rotate(0,206,102)"/><path d="M 218 98v 8h 4a 4 4, 0, 0, 0, 0 -8" transform="rotate(180,222,102)"/><path d="M 226 98v 8h 8v -4a 4 4, 0, 0, 0, -4 -4" transform="rotate(0,230,102)"/><path d="M 242 98v 8h 4a 4 4, 0, 0, 0, 0 -8" transform="rotate(-90,246,102)"/><rect x="42" y="106" width="8" height="8" transform="rotate(0,46,110)"/><rect x="50" y="106" width="8" height="8" transform="rotate(0,54,110)"/><rect x="58" y="106" width="8" height="8" transform="rotate(0,62,110)"/><rect x="66" y="106" width="8" height="8" transform="rotate(0,70,110)"/><path d="M 74 106v 8h 8v -4a 4 4, 0, 0, 0, -4 -4" transform="rotate(0,78,110)"/><rect x="98" y="106" width="8" height="8" transform="rotate(0,102,110)"/><rect x="106" y="106" width="8" height="8" transform="rotate(0,110,110)"/><path d="M 114 106v 8h 8v -4a 4 4, 0, 0, 0, -4 -4" transform="rotate(0,118,110)"/><circle cx="166" cy="110" r="4" transform="rotate(0,166,110)"/><circle cx="182" cy="110" r="4" transform="rotate(0,182,110)"/><circle cx="214" cy="110" r="4" transform="rotate(0,214,110)"/><rect x="226" y="106" width="8" height="8" transform="rotate(0,230,110)"/><rect x="234" y="106" width="8" height="8" transform="rotate(0,238,110)"/><rect x="242" y="106" width="8" height="8" transform="rotate(0,246,110)"/><rect x="250" y="106" width="8" height="8" transform="rotate(0,254,110)"/><path d="M 258 106v 8h 8v -4a 4 4, 0, 0, 0, -4 -4" transform="rotate(0,262,110)"/><path d="M 34 114v 8h 8v -4a 4 4, 0, 0, 0, -4 -4" transform="rotate(-90,38,118)"/><path d="M 42 114v 8h 8v -4a 4 4, 0, 0, 0, -4 -4" transform="rotate(90,46,118)"/><rect x="58" y="114" width="8" height="8" transform="rotate(0,62,118)"/><rect x="74" y="114" width="8" height="8" transform="rotate(0,78,118)"/><path d="M 82 114v 8h 4a 4 4, 0, 0, 0, 0 -8" transform="rotate(0,86,118)"/><path d="M 98 114v 8h 4a 4 4, 0, 0, 0, 0 -8" transform="rotate(90,102,118)"/><rect x="114" y="114" width="8" height="8" transform="rotate(0,118,118)"/><path d="M 130 114v 8h 4a 4 4, 0, 0, 0, 0 -8" transform="rotate(-90,134,118)"/><circle cx="150" cy="118" r="4" transform="rotate(0,150,118)"/><path d="M 194 114v 8h 4a 4 4, 0, 0, 0, 0 -8" transform="rotate(180,198,118)"/><path d="M 202 114v 8h 8v -4a 4 4, 0, 0, 0, -4 -4" transform="rotate(0,206,118)"/><rect x="226" y="114" width="8" height="8" transform="rotate(0,230,118)"/><rect x="234" y="114" width="8" height="8" transform="rotate(0,238,118)"/><path d="M 242 114v 8h 8v -4a 4 4, 0, 0, 0, -4 -4" transform="rotate(90,246,118)"/><rect x="258" y="114" width="8" height="8" transform="rotate(0,262,118)"/><rect x="34" y="122" width="8" height="8" transform="rotate(0,38,126)"/><path d="M 50 122v 8h 4a 4 4, 0, 0, 0, 0 -8" transform="rotate(180,54,126)"/><rect x="58" y="122" width="8" height="8" transform="rotate(0,62,126)"/><path d="M 74 122v 8h 4a 4 4, 0, 0, 0, 0 -8" transform="rotate(90,78,126)"/><path d="M 106 122v 8h 4a 4 4, 0, 0, 0, 0 -8" transform="rotate(180,110,126)"/><rect x="114" y="122" width="8" height="8" transform="rotate(0,118,126)"/><rect x="122" y="122" width="8" height="8" transform="rotate(0,126,126)"/><rect x="130" y="122" width="8" height="8" transform="rotate(0,134,126)"/><path d="M 170 122v 8h 8v -4a 4 4, 0, 0, 0, -4 -4" transform="rotate(-90,174,126)"/><path d="M 178 122v 8h 4a 4 4, 0, 0, 0, 0 -8" transform="rotate(0,182,126)"/><path d="M 202 122v 8h 4a 4 4, 0, 0, 0, 0 -8" transform="rotate(90,206,126)"/><path d="M 226 122v 8h 8v -4a 4 4, 0, 0, 0, -4 -4" transform="rotate(180,230,126)"/><rect x="234" y="122" width="8" height="8" transform="rotate(0,238,126)"/><path d="M 250 122v 8h 4a 4 4, 0, 0, 0, 0 -8" transform="rotate(180,254,126)"/><rect x="258" y="122" width="8" height="8" transform="rotate(0,262,126)"/><rect x="34" y="130" width="8" height="8" transform="rotate(0,38,134)"/><path d="M 42 130v 8h 8v -4a 4 4, 0, 0, 0, -4 -4" transform="rotate(0,46,134)"/><rect x="58" y="130" width="8" height="8" transform="rotate(0,62,134)"/><circle cx="86" cy="134" r="4" transform="rotate(0,86,134)"/><path d="M 122 130v 8h 8v -4a 4 4, 0, 0, 0, -4 -4" transform="rotate(180,126,134)"/><path d="M 130 130v 8h 8v -4a 4 4, 0, 0, 0, -4 -4" transform="rotate(90,134,134)"/><path d="M 154 130v 8h 8v -4a 4 4, 0, 0, 0, -4 -4" transform="rotate(-90,158,134)"/><rect x="162" y="130" width="8" height="8" transform="rotate(0,166,134)"/><rect x="170" y="130" width="8" height="8" transform="rotate(0,174,134)"/><circle cx="190" cy="134" r="4" transform="rotate(0,190,134)"/><circle cx="222" cy="134" r="4" transform="rotate(0,222,134)"/><path d="M 234 130v 8h 4a 4 4, 0, 0, 0, 0 -8" transform="rotate(90,238,134)"/><rect x="258" y="130" width="8" height="8" transform="rotate(0,262,134)"/><rect x="34" y="138" width="8" height="8" transform="rotate(0,38,142)"/><rect x="42" y="138" width="8" height="8" transform="rotate(0,46,142)"/><rect x="58" y="138" width="8" height="8" transform="rotate(0,62,142)"/><path d="M 74 138v 8h 4a 4 4, 0, 0, 0, 0 -8" transform="rotate(-90,78,142)"/><path d="M 90 138v 8h 4a 4 4, 0, 0, 0, 0 -8" transform="rotate(-90,94,142)"/><path d="M 106 138v 8h 4a 4 4, 0, 0, 0, 0 -8" transform="rotate(180,110,142)"/><path d="M 114 138v 8h 8v -4a 4 4, 0, 0, 0, -4 -4" transform="rotate(0,118,142)"/><path d="M 146 138v 8h 8v -4a 4 4, 0, 0, 0, -4 -4" transform="rotate(-90,150,142)"/><rect x="154" y="138" width="8" height="8" transform="rotate(0,158,142)"/><rect x="170" y="138" width="8" height="8" transform="rotate(0,174,142)"/><circle cx="214" cy="142" r="4" transform="rotate(0,214,142)"/><path d="M 226 138v 8h 4a 4 4, 0, 0, 0, 0 -8" transform="rotate(-90,230,142)"/><circle cx="246" cy="142" r="4" transform="rotate(0,246,142)"/><rect x="258" y="138" width="8" height="8" transform="rotate(0,262,142)"/><path d="M 34 146v 8h 8v -4a 4 4, 0, 0, 0, -4 -4" transform="rotate(180,38,150)"/><path d="M 42 146v 8h 8v -4a 4 4, 0, 0, 0, -4 -4" transform="rotate(90,46,150)"/><rect x="58" y="146" width="8" height="8" transform="rotate(0,62,150)"/><path d="M 74 146v 8h 8v -4a 4 4, 0, 0, 0, -4 -4" transform="rotate(180,78,150)"/><rect x="82" y="146" width="8" height="8" transform="rotate(0,86,150)"/><rect x="90" y="146" width="8" height="8" transform="rotate(0,94,150)"/><path d="M 98 146v 8h 8v -4a 4 4, 0, 0, 0, -4 -4" transform="rotate(0,102,150)"/><rect x="114" y="146" width="8" height="8" transform="rotate(0,118,150)"/><path d="M 130 146v 8h 4a 4 4, 0, 0, 0, 0 -8" transform="rotate(-90,134,150)"/><path d="M 146 146v 8h 8v -4a 4 4, 0, 0, 0, -4 -4" transform="rotate(180,150,150)"/><rect x="154" y="146" width="8" height="8" transform="rotate(0,158,150)"/><rect x="170" y="146" width="8" height="8" transform="rotate(0,174,150)"/><path d="M 178 146v 8h 8v -4a 4 4, 0, 0, 0, -4 -4" transform="rotate(0,182,150)"/><circle cx="198" cy="150" r="4" transform="rotate(0,198,150)"/><path d="M 226 146v 8h 4a 4 4, 0, 0, 0, 0 -8" transform="rotate(90,230,150)"/><path d="M 258 146v 8h 4a 4 4, 0, 0, 0, 0 -8" transform="rotate(90,262,150)"/><path d="M 50 154v 8h 8v -4a 4 4, 0, 0, 0, -4 -4" transform="rotate(-90,54,158)"/><rect x="58" y="154" width="8" height="8" transform="rotate(0,62,158)"/><path d="M 66 154v 8h 4a 4 4, 0, 0, 0, 0 -8" transform="rotate(0,70,158)"/><rect x="98" y="154" width="8" height="8" transform="rotate(0,102,158)"/><rect x="106" y="154" width="8" height="8" transform="rotate(0,110,158)"/><rect x="114" y="154" width="8" height="8" transform="rotate(0,118,158)"/><rect x="122" y="154" width="8" height="8" transform="rotate(0,126,158)"/><path d="M 130 154v 8h 8v -4a 4 4, 0, 0, 0, -4 -4" transform="rotate(90,134,158)"/><rect x="154" y="154" width="8" height="8" transform="rotate(0,158,158)"/><path d="M 170 154v 8h 8v -4a 4 4, 0, 0, 0, -4 -4" transform="rotate(180,174,158)"/><rect x="178" y="154" width="8" height="8" transform="rotate(0,182,158)"/><circle cx="222" cy="158" r="4" transform="rotate(0,222,158)"/><circle cx="238" cy="158" r="4" transform="rotate(0,238,158)"/><path d="M 250 154v 8h 4a 4 4, 0, 0, 0, 0 -8" transform="rotate(-90,254,158)"/><path d="M 34 162v 8h 4a 4 4, 0, 0, 0, 0 -8" transform="rotate(-90,38,166)"/><rect x="50" y="162" width="8" height="8" transform="rotate(0,54,166)"/><path d="M 58 162v 8h 8v -4a 4 4, 0, 0, 0, -4 -4" transform="rotate(90,62,166)"/><path d="M 74 162v 8h 8v -4a 4 4, 0, 0, 0, -4 -4" transform="rotate(-90,78,166)"/><path d="M 82 162v 8h 4a 4 4, 0, 0, 0, 0 -8" transform="rotate(0,86,166)"/><path d="M 98 162v 8h 4a 4 4, 0, 0, 0, 0 -8" transform="rotate(90,102,166)"/><path d="M 138 162v 8h 8v -4a 4 4, 0, 0, 0, -4 -4" transform="rotate(-90,142,166)"/><rect x="146" y="162" width="8" height="8" transform="rotate(0,150,166)"/><path d="M 154 162v 8h 8v -4a 4 4, 0, 0, 0, -4 -4" transform="rotate(90,158,166)"/><rect x="178" y="162" width="8" height="8" transform="rotate(0,182,166)"/><rect x="186" y="162" width="8" height="8" transform="rotate(0,190,166)"/><rect x="194" y="162" width="8" height="8" transform="rotate(0,198,166)"/><path d="M 202 162v 8h 4a 4 4, 0, 0, 0, 0 -8" transform="rotate(0,206,166)"/><path d="M 250 162v 8h 8v -4a 4 4, 0, 0, 0, -4 -4" transform="rotate(180,254,166)"/><path d="M 258 162v 8h 8v -4a 4 4, 0, 0, 0, -4 -4" transform="rotate(0,262,166)"/><path d="M 34 170v 8h 8v -4a 4 4, 0, 0, 0, -4 -4" transform="rotate(180,38,174)"/><rect x="42" y="170" width="8" height="8" transform="rotate(0,46,174)"/><path d="M 50 170v 8h 8v -4a 4 4, 0, 0, 0, -4 -4" transform="rotate(90,54,174)"/><path d="M 66 170v 8h 8v -4a 4 4, 0, 0, 0, -4 -4" transform="rotate(-90,70,174)"/><rect x="74" y="170" width="8" height="8" transform="rotate(0,78,174)"/><circle cx="118" cy="174" r="4" transform="rotate(0,118,174)"/><rect x="138" y="170" width="8" height="8" transform="rotate(0,142,174)"/><path d="M 162 170v 8h 4a 4 4, 0, 0, 0, 0 -8" transform="rotate(-90,166,174)"/><rect x="178" y="170" width="8" height="8" transform="rotate(0,182,174)"/><path d="M 186 170v 8h 8v -4a 4 4, 0, 0, 0, -4 -4" transform="rotate(90,190,174)"/><path d="M 210 170v 8h 4a 4 4, 0, 0, 0, 0 -8" transform="rotate(180,214,174)"/><rect x="218" y="170" width="8" height="8" transform="rotate(0,222,174)"/><path d="M 226 170v 8h 8v -4a 4 4, 0, 0, 0, -4 -4" transform="rotate(0,230,174)"/><rect x="258" y="170" width="8" height="8" transform="rotate(0,262,174)"/><path d="M 66 178v 8h 8v -4a 4 4, 0, 0, 0, -4 -4" transform="rotate(180,70,182)"/><rect x="74" y="178" width="8" height="8" transform="rotate(0,78,182)"/><rect x="82" y="178" width="8" height="8" transform="rotate(0,86,182)"/><path d="M 90 178v 8h 8v -4a 4 4, 0, 0, 0, -4 -4" transform="rotate(0,94,182)"/><circle cx="126" cy="182" r="4" transform="rotate(0,126,182)"/><rect x="138" y="178" width="8" height="8" transform="rotate(0,142,182)"/><path d="M 146 178v 8h 8v -4a 4 4, 0, 0, 0, -4 -4" transform="rotate(0,150,182)"/><path d="M 162 178v 8h 8v -4a 4 4, 0, 0, 0, -4 -4" transform="rotate(180,166,182)"/><rect x="170" y="178" width="8" height="8" transform="rotate(0,174,182)"/><path d="M 178 178v 8h 8v -4a 4 4, 0, 0, 0, -4 -4" transform="rotate(90,182,182)"/><path d="M 194 178v 8h 4a 4 4, 0, 0, 0, 0 -8" transform="rotate(-90,198,182)"/><rect x="226" y="178" width="8" height="8" transform="rotate(0,230,182)"/><rect x="234" y="178" width="8" height="8" transform="rotate(0,238,182)"/><path d="M 242 178v 8h 4a 4 4, 0, 0, 0, 0 -8" transform="rotate(0,246,182)"/><rect x="258" y="178" width="8" height="8" transform="rotate(0,262,182)"/><path d="M 50 186v 8h 4a 4 4, 0, 0, 0, 0 -8" transform="rotate(-90,54,190)"/><path d="M 90 186v 8h 8v -4a 4 4, 0, 0, 0, -4 -4" transform="rotate(180,94,190)"/><path d="M 98 186v 8h 4a 4 4, 0, 0, 0, 0 -8" transform="rotate(0,102,190)"/><path d="M 130 186v 8h 4a 4 4, 0, 0, 0, 0 -8" transform="rotate(180,134,190)"/><rect x="138" y="186" width="8" height="8" transform="rotate(0,142,190)"/><rect x="146" y="186" width="8" height="8" transform="rotate(0,150,190)"/><rect x="170" y="186" width="8" height="8" transform="rotate(0,174,190)"/><rect x="194" y="186" width="8" height="8" transform="rotate(0,198,190)"/><rect x="226" y="186" width="8" height="8" transform="rotate(0,230,190)"/><rect x="234" y="186" width="8" height="8" transform="rotate(0,238,190)"/><rect x="258" y="186" width="8" height="8" transform="rotate(0,262,190)"/><path d="M 34 194v 8h 4a 4 4, 0, 0, 0, 0 -8" transform="rotate(180,38,198)"/><rect x="42" y="194" width="8" height="8" transform="rotate(0,46,198)"/><path d="M 50 194v 8h 8v -4a 4 4, 0, 0, 0, -4 -4" transform="rotate(90,54,198)"/><circle cx="70" cy="198" r="4" transform="rotate(0,70,198)"/><circle cx="86" cy="198" r="4" transform="rotate(0,86,198)"/><path d="M 106 194v 8h 4a 4 4, 0, 0, 0, 0 -8" transform="rotate(180,110,198)"/><path d="M 114 194v 8h 8v -4a 4 4, 0, 0, 0, -4 -4" transform="rotate(0,118,198)"/><rect x="146" y="194" width="8" height="8" transform="rotate(0,150,198)"/><path d="M 154 194v 8h 8v -4a 4 4, 0, 0, 0, -4 -4" transform="rotate(0,158,198)"/><rect x="170" y="194" width="8" height="8" transform="rotate(0,174,198)"/><path d="M 186 194v 8h 4a 4 4, 0, 0, 0, 0 -8" transform="rotate(180,190,198)"/><rect x="194" y="194" width="8" height="8" transform="rotate(0,198,198)"/><rect x="202" y="194" width="8" height="8" transform="rotate(0,206,198)"/><rect x="210" y="194" width="8" height="8" transform="rotate(0,214,198)"/><rect x="218" y="194" width="8" height="8" transform="rotate(0,222,198)"/><rect x="226" y="194" width="8" height="8" transform="rotate(0,230,198)"/><path d="M 234 194v 8h 8v -4a 4 4, 0, 0, 0, -4 -4" transform="rotate(90,238,198)"/><path d="M 250 194v 8h 4a 4 4, 0, 0, 0, 0 -8" transform="rotate(180,254,198)"/><rect x="258" y="194" width="8" height="8" transform="rotate(0,262,198)"/><circle cx="102" cy="206" r="4" transform="rotate(0,102,206)"/><rect x="114" y="202" width="8" height="8" transform="rotate(0,118,206)"/><circle cx="134" cy="206" r="4" transform="rotate(0,134,206)"/><path d="M 146 202v 8h 8v -4a 4 4, 0, 0, 0, -4 -4" transform="rotate(180,150,206)"/><rect x="154" y="202" width="8" height="8" transform="rotate(0,158,206)"/><rect x="162" y="202" width="8" height="8" transform="rotate(0,166,206)"/><rect x="170" y="202" width="8" height="8" transform="rotate(0,174,206)"/><path d="M 178 202v 8h 8v -4a 4 4, 0, 0, 0, -4 -4" transform="rotate(0,182,206)"/><rect x="194" y="202" width="8" height="8" transform="rotate(0,198,206)"/><rect x="226" y="202" width="8" height="8" transform="rotate(0,230,206)"/><circle cx="246" cy="206" r="4" transform="rotate(0,246,206)"/><rect x="258" y="202" width="8" height="8" transform="rotate(0,262,206)"/><path d="M 114 210v 8h 8v -4a 4 4, 0, 0, 0, -4 -4" transform="rotate(180,118,214)"/><path d="M 122 210v 8h 8v -4a 4 4, 0, 0, 0, -4 -4" transform="rotate(0,126,214)"/><circle cx="142" cy="214" r="4" transform="rotate(0,142,214)"/><path d="M 154 210v 8h 4a 4 4, 0, 0, 0, 0 -8" transform="rotate(90,158,214)"/><path d="M 178 210v 8h 8v -4a 4 4, 0, 0, 0, -4 -4" transform="rotate(180,182,214)"/><rect x="186" y="210" width="8" height="8" transform="rotate(0,190,214)"/><rect x="194" y="210" width="8" height="8" transform="rotate(0,198,214)"/><circle cx="214" cy="214" r="4" transform="rotate(0,214,214)"/><rect x="226" y="210" width="8" height="8" transform="rotate(0,230,214)"/><path d="M 250 210v 8h 4a 4 4, 0, 0, 0, 0 -8" transform="rotate(180,254,214)"/><path d="M 258 210v 8h 8v -4a 4 4, 0, 0, 0, -4 -4" transform="rotate(90,262,214)"/><circle cx="110" cy="222" r="4" transform="rotate(0,110,222)"/><rect x="122" y="218" width="8" height="8" transform="rotate(0,126,222)"/><path d="M 130 218v 8h 8v -4a 4 4, 0, 0, 0, -4 -4" transform="rotate(0,134,222)"/><path d="M 162 218v 8h 4a 4 4, 0, 0, 0, 0 -8" transform="rotate(-90,166,222)"/><rect x="186" y="218" width="8" height="8" transform="rotate(0,190,222)"/><rect x="194" y="218" width="8" height="8" transform="rotate(0,198,222)"/><rect x="226" y="218" width="8" height="8" transform="rotate(0,230,222)"/><path d="M 234 218v 8h 4a 4 4, 0, 0, 0, 0 -8" transform="rotate(0,238,222)"/><circle cx="102" cy="230" r="4" transform="rotate(0,102,230)"/><path d="M 114 226v 8h 4a 4 4, 0, 0, 0, 0 -8" transform="rotate(180,118,230)"/><rect x="122" y="226" width="8" height="8" transform="rotate(0,126,230)"/><path d="M 130 226v 8h 8v -4a 4 4, 0, 0, 0, -4 -4" transform="rotate(90,134,230)"/><path d="M 162 226v 8h 4a 4 4, 0, 0, 0, 0 -8" transform="rotate(90,166,230)"/><path d="M 186 226v 8h 8v -4a 4 4, 0, 0, 0, -4 -4" transform="rotate(180,190,230)"/><rect x="194" y="226" width="8" height="8" transform="rotate(0,198,230)"/><rect x="202" y="226" width="8" height="8" transform="rotate(0,206,230)"/><rect x="210" y="226" width="8" height="8" transform="rotate(0,214,230)"/><rect x="218" y="226" width="8" height="8" transform="rotate(0,222,230)"/><path d="M 226 226v 8h 8v -4a 4 4, 0, 0, 0, -4 -4" transform="rotate(90,230,230)"/><circle cx="262" cy="230" r="4" transform="rotate(0,262,230)"/><path d="M 122 234v 8h 4a 4 4, 0, 0, 0, 0 -8" transform="rotate(90,126,238)"/><path d="M 138 234v 8h 4a 4 4, 0, 0, 0, 0 -8" transform="rotate(180,142,238)"/><path d="M 146 234v 8h 8v -4a 4 4, 0, 0, 0, -4 -4" transform="rotate(0,150,238)"/><path d="M 170 234v 8h 4a 4 4, 0, 0, 0, 0 -8" transform="rotate(180,174,238)"/><path d="M 178 234v 8h 8v -4a 4 4, 0, 0, 0, -4 -4" transform="rotate(0,182,238)"/><path d="M 218 234v 8h 4a 4 4, 0, 0, 0, 0 -8" transform="rotate(90,222,238)"/><path d="M 250 234v 8h 4a 4 4, 0, 0, 0, 0 -8" transform="rotate(-90,254,238)"/><path d="M 106 242v 8h 8v -4a 4 4, 0, 0, 0, -4 -4" transform="rotate(-90,110,246)"/><path d="M 114 242v 8h 8v -4a 4 4, 0, 0, 0, -4 -4" transform="rotate(0,118,246)"/><path d="M 146 242v 8h 8v -4a 4 4, 0, 0, 0, -4 -4" transform="rotate(180,150,246)"/><path d="M 154 242v 8h 8v -4a 4 4, 0, 0, 0, -4 -4" transform="rotate(0,158,246)"/><rect x="178" y="242" width="8" height="8" transform="rotate(0,182,246)"/><rect x="186" y="242" width="8" height="8" transform="rotate(0,190,246)"/><rect x="194" y="242" width="8" height="8" transform="rotate(0,198,246)"/><path d="M 202 242v 8h 8v -4a 4 4, 0, 0, 0, -4 -4" transform="rotate(0,206,246)"/><circle cx="238" cy="246" r="4" transform="rotate(0,238,246)"/><rect x="250" y="242" width="8" height="8" transform="rotate(0,254,246)"/><path d="M 258 242v 8h 8v -4a 4 4, 0, 0, 0, -4 -4" transform="rotate(0,262,246)"/><path d="M 98 250v 8h 4a 4 4, 0, 0, 0, 0 -8" transform="rotate(180,102,254)"/><rect x="106" y="250" width="8" height="8" transform="rotate(0,110,254)"/><path d="M 114 250v 8h 8v -4a 4 4, 0, 0, 0, -4 -4" transform="rotate(90,118,254)"/><circle cx="142" cy="254" r="4" transform="rotate(0,142,254)"/><path d="M 154 250v 8h 8v -4a 4 4, 0, 0, 0, -4 -4" transform="rotate(180,158,254)"/><rect x="162" y="250" width="8" height="8" transform="rotate(0,166,254)"/><rect x="170" y="250" width="8" height="8" transform="rotate(0,174,254)"/><rect x="178" y="250" width="8" height="8" transform="rotate(0,182,254)"/><path d="M 186 250v 8h 8v -4a 4 4, 0, 0, 0, -4 -4" transform="rotate(90,190,254)"/><rect x="202" y="250" width="8" height="8" transform="rotate(0,206,254)"/><rect x="210" y="250" width="8" height="8" transform="rotate(0,214,254)"/><path d="M 218 250v 8h 4a 4 4, 0, 0, 0, 0 -8" transform="rotate(0,222,254)"/><rect x="250" y="250" width="8" height="8" transform="rotate(0,254,254)"/><path d="M 258 250v 8h 8v -4a 4 4, 0, 0, 0, -4 -4" transform="rotate(90,262,254)"/><path d="M 106 258v 8h 4a 4 4, 0, 0, 0, 0 -8" transform="rotate(90,110,262)"/><circle cx="126" cy="262" r="4" transform="rotate(0,126,262)"/><circle cx="150" cy="262" r="4" transform="rotate(0,150,262)"/><path d="M 170 258v 8h 4a 4 4, 0, 0, 0, 0 -8" transform="rotate(90,174,262)"/><path d="M 194 258v 8h 4a 4 4, 0, 0, 0, 0 -8" transform="rotate(180,198,262)"/><path d="M 202 258v 8h 8v -4a 4 4, 0, 0, 0, -4 -4" transform="rotate(90,206,262)"/><path d="M 226 258v 8h 4a 4 4, 0, 0, 0, 0 -8" transform="rotate(180,230,262)"/><path d="M 234 258v 8h 4a 4 4, 0, 0, 0, 0 -8" transform="rotate(0,238,262)"/><path d="M 250 258v 8h 4a 4 4, 0, 0, 0, 0 -8" transform="rotate(90,254,262)"/></clipPath><clipPath id="clip-path-corners-square-color-0-0-7"><path clip-rule="evenodd" d="M 34 54v 16a 20 20, 0, 0, 0, 20 20h 16a 20 20, 0, 0, 0, 20 -20v -16a 20 20, 0, 0, 0, -20 -20h -16a 20 20, 0, 0, 0, -20 20M 54 42h 16a 12 12, 0, 0, 1, 12 12v 16a 12 12, 0, 0, 1, -12 12h -16a 12 12, 0, 0, 1, -12 -12v -16a 12 12, 0, 0, 1, 12 -12" transform="rotate(0,62,62)"/></clipPath><clipPath id="clip-path-corners-dot-color-0-0-7"><circle cx="62" cy="62" r="12" transform="rotate(0,62,62)"/></clipPath><clipPath id="clip-path-corners-square-color-1-0-7"><path clip-rule="evenodd" d="M 210 54v 16a 20 20, 0, 0, 0, 20 20h 16a 20 20, 0, 0, 0, 20 -20v -16a 20 20, 0, 0, 0, -20 -20h -16a 20 20, 0, 0, 0, -20 20M 230 42h 16a 12 12, 0, 0, 1, 12 12v 16a 12 12, 0, 0, 1, -12 12h -16a 12 12, 0, 0, 1, -12 -12v -16a 12 12, 0, 0, 1, 12 -12" transform="rotate(90,238,62)"/></clipPath><clipPath id="clip-path-corners-dot-color-1-0-7"><circle cx="238" cy="62" r="12" transform="rotate(90,238,62)"/></clipPath><clipPath id="clip-path-corners-square-color-0-1-7"><path clip-rule="evenodd" d="M 34 230v 16a 20 20, 0, 0, 0, 20 20h 16a 20 20, 0, 0, 0, 20 -20v -16a 20 20, 0, 0, 0, -20 -20h -16a 20 20, 0, 0, 0, -20 20M 54 218h 16a 12 12, 0, 0, 1, 12 12v 16a 12 12, 0, 0, 1, -12 12h -16a 12 12, 0, 0, 1, -12 -12v -16a 12 12, 0, 0, 1, 12 -12" transform="rotate(-90,62,238)"/></clipPath><clipPath id="clip-path-corners-dot-color-0-1-7"><circle cx="62" cy="238" r="12" transform="rotate(-90,62,238)"/></clipPath></defs><rect x="0" y="0" height="300" width="300" clip-path="url('#clip-path-background-color-7')" fill="#ffffff"/><rect x="0" y="0" height="300" width="300" clip-path="url('#clip-path-dot-color-7')" fill="#000000"/><rect x="34" y="34" height="56" width="56" clip-path="url('#clip-path-corners-square-color-0-0-7')" fill="#000000"/><rect x="50" y="50" height="24" width="24" clip-path="url('#clip-path-corners-dot-color-0-0-7')" fill="#000000"/><rect x="210" y="34" height="56" width="56" clip-path="url('#clip-path-corners-square-color-1-0-7')" fill="#000000"/><rect x="226" y="50" height="24" width="24" clip-path="url('#clip-path-corners-dot-color-1-0-7')" fill="#000000"/><rect x="34" y="210" height="56" width="56" clip-path="url('#clip-path-corners-square-color-0-1-7')" fill="#000000"/><rect x="50" y="226" height="24" width="24" clip-path="url('#clip-path-corners-dot-color-0-1-7')" fill="#000000"/></svg>